<?xml version="1.0" encoding="UTF-8"?>
<svg width="513px" height="513px" viewBox="0 0 513 513" version="1.1" xmlns="http://www.w3.org/2000/svg" xmlns:xlink="http://www.w3.org/1999/xlink">
    <!-- Generator: Sketch 52.6 (67491) - http://www.bohemiancoding.com/sketch -->
    <title>card</title>
    <desc>Created with Sketch.</desc>
    <g id="card" stroke="none" stroke-width="1" fill="none" fill-rule="evenodd">
        <g id="poker" fill="#000000" fill-rule="nonzero">
            <path d="M491.925333,103.266133 L449.8048,94.8778667 L452.680533,64.448 C453.900646,50.4264228 443.641833,38.0208579 429.640533,36.5866667 L375.880533,31.4666667 L375.5136,24.5376 C374.7606,10.4279055 362.718345,-0.403630336 348.608,0.337066667 L24.7936,17.4037333 C18.011632,17.7501768 11.6451924,20.7770523 7.09531034,25.8182513 C2.54542822,30.8594502 0.184949845,37.5018647 0.533333333,44.2837333 L23.8805333,487.402667 C24.5835944,500.992492 35.7957531,511.65735 49.4037333,511.68 L50.7946667,511.68 L333.905067,496.7808 L410.705067,512.064 C417.365796,513.406797 424.287064,512.041947 429.939393,508.271059 C435.591722,504.500171 439.509775,498.633689 440.827733,491.968 L512.021333,133.380267 C513.373484,126.719627 512.012319,119.794778 508.239711,114.141472 C504.467103,108.488166 498.594874,104.573676 491.925333,103.266133 Z M379.6096,474.730667 C378.101671,476.421449 375.97617,477.433446 373.713067,477.538133 L49.8901333,494.6048 C45.1845782,494.851643 41.1695793,491.237762 40.9216,486.532267 L17.6,43.3792 C17.3629948,38.6769874 20.9791892,34.6712979 25.6810667,34.4277333 L349.495467,17.3610667 C354.185859,17.1567579 358.175311,20.7476447 358.464,25.4336 L381.777067,468.552533 C381.913443,470.819403 381.132337,473.045862 379.6096,474.730667 Z M376.785067,48.704 L427.985067,53.568 C430.252056,53.7668915 432.34569,54.8630544 433.800665,56.6128687 C435.255638,58.3626831 435.951405,60.6211752 435.733333,62.8864 L398.357333,457.979733 L376.785067,48.704 Z M495.287467,130.0352 L424.119467,488.64 C423.177005,493.234988 418.702497,496.207828 414.101333,495.296 L400.3456,492.565333 C401.98116,491.742585 403.525655,490.750104 404.9536,489.604267 C410.204349,485.298193 413.50377,479.062193 414.109867,472.298667 L448.192,111.953067 L488.64,120 C490.862082,120.429703 492.818825,121.733047 494.071657,123.617909 C495.324489,125.502771 495.76863,127.811512 495.304533,130.026667 L495.287467,130.0352 Z" id="Shape"></path>
        </g>
    </g>
</svg>